PathFileType	4	(X/Y/Z)	OpenSim_Sub04_EMGBaseline_Magnet.trc
DataRate	CameraRate	NumFrames	NumMarkers	Units	OrigDataRate	OrigDataStartFrame	OrigNumFrames
100	100	37	8	m	100	3971	7941
Frame#	Time	torso_imu_offset_imu	pelvis_imu_offset_imu	tibia_r_imu_offset_imu	femur_r_imu_offset_imu	tibia_l_imu_offset_imu	femur_l_imu_offset_imu	toes_r_imu_offset_imu	toes_l_imu_offset_imu
				X1	Y1	Z1	X2	Y2	Z2	X3	Y3	Z3	X4	Y4	Z4	X5	Y5	Z5	X6	Y6	Z6	X7	Y7	Z7	X8		Y8	Z8	

3971	39.70000000	0.90000789	0.23267221	-0.22410940	-0.66454358	0.24118615	-0.59968444	-0.05795551	-0.80322115	-0.17063145	-0.85215460	-0.13775572	0.03379947	-0.60837962	0.45256082	0.31776157	-0.64351790	0.20639831	0.47918851	-0.75275295	-0.41653245	0.09334558	-0.65620665	-0.39085787	-0.28714543
3972	39.71000000	0.90357041	0.23576334	-0.22080112	-0.66025729	0.23981632	-0.60033062	-0.08713155	-0.80168248	-0.17346275	-0.85035737	-0.12415885	0.03100979	-0.60483252	0.45569904	0.32398942	-0.63963621	0.20790822	0.48381566	-0.75005252	-0.39403292	0.04942650	-0.65530440	-0.39123936	-0.28692593
3973	39.72000000	0.90122599	0.23574271	-0.21408901	-0.66247755	0.24141153	-0.60240148	-0.11274086	-0.79374481	-0.17174229	-0.85690061	-0.11794671	0.02831769	-0.59883402	0.46016326	0.32126528	-0.63224770	0.20936045	0.47666787	-0.74927084	-0.37581562	0.01161793	-0.65611709	-0.38434947	-0.29052594
3974	39.73000000	0.90083493	0.23860113	-0.21113836	-0.66728768	0.23989815	-0.60260321	-0.14213319	-0.78849910	-0.16680786	-0.86313409	-0.10753926	0.02631209	-0.59655461	0.46914818	0.32282779	-0.63544213	0.21525225	0.48208044	-0.74864592	-0.35734683	-0.01717460	-0.65843557	-0.38401734	-0.28432293
3975	39.74000000	0.89992777	0.23878060	-0.21053724	-0.66293049	0.24463575	-0.60511513	-0.17364636	-0.77965948	-0.16793028	-0.85681549	-0.09916938	0.02839433	-0.59009438	0.46792740	0.32080651	-0.63475833	0.21155649	0.49142154	-0.73915789	-0.33850998	-0.04921941	-0.66053105	-0.38798186	-0.27582024
3976	39.75000000	0.90304912	0.23674930	-0.20588615	-0.66307760	0.24603231	-0.60408488	-0.21325784	-0.77872814	-0.16027532	-0.85767840	-0.08893812	0.02429143	-0.58810725	0.47982198	0.32278523	-0.62800952	0.21184979	0.48855899	-0.73050697	-0.32357821	-0.08005684	-0.66301631	-0.38419667	-0.27592836
3977	39.76000000	0.89914202	0.24446611	-0.20463723	-0.66099736	0.24911143	-0.60325672	-0.24601733	-0.76564054	-0.16239457	-0.85879290	-0.08105419	0.02133724	-0.58039304	0.48512579	0.32138475	-0.62090977	0.21983966	0.49184861	-0.72968353	-0.31215964	-0.10653594	-0.66455986	-0.38190968	-0.28223648
3978	39.77000000	0.90379887	0.24214700	-0.20503011	-0.66126965	0.25171749	-0.60754819	-0.27814474	-0.75396201	-0.15649557	-0.86194288	-0.07536452	0.02438862	-0.57615172	0.49009158	0.31992585	-0.62797788	0.21975475	0.49244983	-0.72708897	-0.29391157	-0.13224102	-0.66590337	-0.38825183	-0.28067945
3979	39.78000000	0.90291699	0.24723399	-0.20325272	-0.66166486	0.24803741	-0.60442124	-0.31596832	-0.73231860	-0.16073325	-0.85839101	-0.07064779	0.01672545	-0.58034667	0.49612631	0.32473082	-0.61589738	0.22407599	0.49255541	-0.72056685	-0.28498923	-0.15865650	-0.67087097	-0.38409956	-0.27650474
3980	39.79000000	0.90311409	0.24800711	-0.19586164	-0.66312009	0.25364446	-0.60593621	-0.35784298	-0.71465430	-0.16345209	-0.86398991	-0.06589613	0.01604989	-0.57447885	0.49795755	0.32511434	-0.61300693	0.22730305	0.50297553	-0.71869365	-0.27550833	-0.18280791	-0.66801595	-0.38201253	-0.27438834
3981	39.80000000	0.90308266	0.24615379	-0.19396524	-0.65897545	0.25546641	-0.61001502	-0.38952976	-0.69685559	-0.16980719	-0.86625660	-0.06433402	0.01683657	-0.56830533	0.50003339	0.32138278	-0.60824344	0.23556097	0.50165322	-0.72263834	-0.26103954	-0.21427413	-0.67622830	-0.38455495	-0.27273560
3982	39.81000000	0.90301127	0.24598991	-0.18209946	-0.65923114	0.25006699	-0.60650260	-0.41519930	-0.67419955	-0.17540792	-0.85999050	-0.05819729	0.00980986	-0.56796676	0.50311645	0.32655092	-0.60490697	0.23744596	0.50592796	-0.71760970	-0.24840668	-0.24516953	-0.67396414	-0.37647233	-0.27198701
3983	39.82000000	0.90334582	0.24659308	-0.18528094	-0.65930491	0.25216715	-0.60563232	-0.44735541	-0.65519943	-0.17890785	-0.86156355	-0.06697384	0.01149344	-0.56785805	0.50934428	0.32619765	-0.60464123	0.24195054	0.51000392	-0.71095707	-0.23397317	-0.28109142	-0.67940926	-0.37855894	-0.26764149
3984	39.83000000	0.90582273	0.24792982	-0.18224244	-0.65861162	0.25013419	-0.61000326	-0.48182801	-0.62808890	-0.20073566	-0.86449462	-0.06516525	0.00982784	-0.55812866	0.51118018	0.32038309	-0.60024797	0.24732532	0.50489408	-0.70378895	-0.22130121	-0.31048706	-0.68340730	-0.37550746	-0.26821818
3985	39.84000000	0.90761984	0.24701407	-0.18028137	-0.65761839	0.25310551	-0.60969540	-0.50560808	-0.60132723	-0.21037095	-0.85971802	-0.06797277	0.00346461	-0.56050905	0.51682152	0.32241844	-0.59823603	0.25512420	0.51379624	-0.69541794	-0.20729256	-0.35070449	-0.68551583	-0.38139454	-0.26786422
3986	39.85000000	0.90698470	0.25008023	-0.17839352	-0.66138614	0.25330287	-0.60932342	-0.53253945	-0.58052575	-0.21613630	-0.85818856	-0.07968378	0.00516833	-0.55258656	0.52511710	0.31942431	-0.59396505	0.25786139	0.51307256	-0.67825673	-0.19680140	-0.37531446	-0.68752120	-0.37612060	-0.26492451
3987	39.86000000	0.90837728	0.24641224	-0.17521588	-0.65532265	0.24433374	-0.60752391	-0.55274368	-0.54757358	-0.22706736	-0.86104558	-0.08049231	0.01002931	-0.54784135	0.52930620	0.31978386	-0.58926648	0.26688655	0.51527336	-0.67199451	-0.18351635	-0.40680337	-0.69102464	-0.37433198	-0.25748916
3988	39.87000000	0.91124567	0.24771833	-0.17213930	-0.65363268	0.24178146	-0.61255010	-0.57528903	-0.52483762	-0.23477273	-0.86053049	-0.08643436	0.01063060	-0.55067848	0.53663143	0.31817455	-0.58373701	0.27367956	0.51133235	-0.65467399	-0.16961806	-0.43113485	-0.69696100	-0.37288444	-0.25252498
3989	39.88000000	0.90716963	0.24442212	-0.17300428	-0.66152658	0.24460341	-0.61781570	-0.59143637	-0.49487902	-0.23683445	-0.85325305	-0.09598894	0.00041505	-0.54655471	0.54527658	0.31401478	-0.58482493	0.28143637	0.50896908	-0.64077866	-0.16213215	-0.45601858	-0.69686645	-0.37191305	-0.25424959
3990	39.89000000	0.90700901	0.24861998	-0.16699465	-0.65501525	0.24197207	-0.62028085	-0.61250918	-0.47248817	-0.24616231	-0.85763951	-0.09985985	-0.00569062	-0.53916617	0.54743976	0.31685031	-0.58364315	0.28308675	0.51511940	-0.62625683	-0.15149926	-0.47833046	-0.70274638	-0.36880988	-0.24588026
3991	39.90000000	0.90591008	0.24535611	-0.16712776	-0.64944406	0.23301332	-0.61656997	-0.62475697	-0.45777193	-0.24883856	-0.85484800	-0.10995338	-0.00134614	-0.53851822	0.54765021	0.31491130	-0.58038672	0.28893945	0.50847127	-0.61224309	-0.13325416	-0.49620216	-0.71183795	-0.36922103	-0.23849424
3992	39.91000000	0.90958554	0.24149444	-0.16523241	-0.65055194	0.23544983	-0.62394818	-0.63815262	-0.43547090	-0.25304910	-0.85459254	-0.12036101	-0.00202414	-0.52947109	0.56097348	0.30895291	-0.58301087	0.29655378	0.50747593	-0.60109555	-0.12440928	-0.51118985	-0.71723024	-0.36228733	-0.23881653
3993	39.92000000	0.90779696	0.24259194	-0.16715252	-0.65242690	0.23053149	-0.62607319	-0.64806068	-0.41435873	-0.24902100	-0.85167133	-0.12003486	0.00299444	-0.52650179	0.56370433	0.31323195	-0.57908973	0.29954918	0.51393345	-0.59251518	-0.11461529	-0.52720023	-0.71750302	-0.36578726	-0.23276230
3994	39.93000000	0.91268241	0.24350800	-0.16468739	-0.65088739	0.22609715	-0.62956774	-0.65554538	-0.40578522	-0.25023157	-0.84800939	-0.12436079	-0.00265973	-0.52260640	0.56661935	0.30974153	-0.57055771	0.30769415	0.50480365	-0.58427335	-0.10096043	-0.53730464	-0.72580121	-0.35603230	-0.22467112
3995	39.94000000	0.91415734	0.24003901	-0.16166036	-0.64782480	0.22014015	-0.62707845	-0.66459392	-0.39888569	-0.24884637	-0.84876554	-0.12643232	0.00510765	-0.51192812	0.57447384	0.30775285	-0.56812839	0.31029628	0.50894569	-0.58375407	-0.09525974	-0.54706598	-0.73437611	-0.35307482	-0.21909762
3996	39.95000000	0.91393535	0.24169597	-0.15561330	-0.65188317	0.21851510	-0.62653122	-0.66205622	-0.39158679	-0.24725867	-0.85059038	-0.13037530	0.00632627	-0.50876744	0.58583572	0.30695282	-0.57042142	0.31908368	0.51264979	-0.57526957	-0.08363292	-0.55048711	-0.74123269	-0.35018160	-0.20538276
3997	39.96000000	0.91449083	0.23673038	-0.15636140	-0.64840489	0.21606317	-0.62589145	-0.66554079	-0.39307206	-0.25466174	-0.84990940	-0.12920596	0.00644256	-0.50364558	0.59251090	0.30814490	-0.56703124	0.32226091	0.51140980	-0.57640710	-0.07276688	-0.55277301	-0.74733521	-0.34765644	-0.19734619
3998	39.97000000	0.91620311	0.23317615	-0.15844751	-0.64461876	0.21192326	-0.63508101	-0.66763958	-0.40102994	-0.24288354	-0.84851369	-0.12499430	0.00978989	-0.49407450	0.59340100	0.31321920	-0.56421642	0.32554707	0.50704817	-0.58382987	-0.06881813	-0.55068993	-0.74919923	-0.35083678	-0.18292230
3999	39.98000000	0.91378588	0.23078488	-0.16034630	-0.64550738	0.21050141	-0.63181940	-0.66085393	-0.40953858	-0.23639400	-0.85113103	-0.12064511	0.01620721	-0.48623567	0.60262427	0.30772683	-0.56615978	0.33097222	0.50818069	-0.58399989	-0.06400269	-0.54041966	-0.75541172	-0.34476469	-0.16342327
4000	39.99000000	0.91174993	0.22975361	-0.15997842	-0.64721346	0.20983918	-0.62460254	-0.65879008	-0.41060280	-0.23794535	-0.85309505	-0.11834274	0.01751469	-0.48218677	0.60934903	0.30815955	-0.56462409	0.33212331	0.50554721	-0.59150682	-0.06919260	-0.53393617	-0.76646172	-0.34365053	-0.16126756
4001	40	0.91303091	0.23050644	-0.16069164	-0.64741380	0.20193660	-0.62907575	-0.65170819	-0.42065383	-0.22973074	-0.85161486	-0.12118557	0.02095224	-0.47476350	0.61761212	0.30377609	-0.56964515	0.33995950	0.49592010	-0.60241821	-0.07329875	-0.52341612	-0.76918074	-0.33687648	-0.14669266
4002	40.01000000	0.91666773	0.22495047	-0.16148377	-0.64797123	0.19237185	-0.62950583	-0.64490323	-0.42913473	-0.22373513	-0.84918180	-0.11493091	0.02777978	-0.46647911	0.62197434	0.30239610	-0.57125377	0.33984689	0.49825671	-0.61153939	-0.07415024	-0.51578410	-0.76739646	-0.34351288	-0.13186368
4003	40.02000000	0.91468684	0.22346293	-0.15755559	-0.64444676	0.19226098	-0.63572312	-0.63551106	-0.45348347	-0.21723683	-0.85249617	-0.11519881	0.03583299	-0.45955483	0.62862410	0.31058980	-0.57090262	0.34808407	0.49319624	-0.61540661	-0.07397351	-0.50597355	-0.77676162	-0.33763926	-0.11308487
4004	40.03000000	0.91717327	0.21769168	-0.16016346	-0.64592249	0.19276547	-0.63703700	-0.63075051	-0.46628272	-0.20547334	-0.84876652	-0.11385143	0.04520980	-0.44831507	0.63612134	0.30122626	-0.57323092	0.35468442	0.48669893	-0.62218535	-0.08543466	-0.49186173	-0.78469233	-0.33810714	-0.09728644
4005	40.04000000	0.91690846	0.22151789	-0.15921050	-0.64218824	0.18688190	-0.64447201	-0.63196775	-0.46962840	-0.20032135	-0.85100995	-0.11865244	0.04613553	-0.44039747	0.64647044	0.30659937	-0.58019003	0.35582552	0.47504938	-0.63015279	-0.09260298	-0.48332037	-0.77761054	-0.34363327	-0.07214628
4006	40.05000000	0.91620403	0.21027338	-0.16159990	-0.64720151	0.18402210	-0.63976805	-0.62790294	-0.47719993	-0.19659622	-0.84737733	-0.12257432	0.05551980	-0.42937598	0.65001409	0.30768441	-0.57640454	0.36394196	0.47488642	-0.63929482	-0.09631244	-0.46760527	-0.78110570	-0.34171035	-0.05982289
4007	40.06000000	0.91642718	0.21738237	-0.17026498	-0.64761369	0.17579448	-0.64571098	-0.63053264	-0.47029967	-0.18521929	-0.84115327	-0.12702117	0.06444220	-0.41334510	0.65526687	0.30652959	-0.58083796	0.36362587	0.46493800	-0.65147872	-0.09841922	-0.45482806	-0.77939127	-0.34355375	-0.03217721
